<svg width="331" height="221" viewBox="0 0 331 221" fill="none" xmlns="http://www.w3.org/2000/svg">
<path fill-rule="evenodd" clip-rule="evenodd" d="M295 161.943V0H315.021C324.728 0 331.879 9.08109 329.602 18.5179L295 161.943Z" fill="#DEABFB"/>
<path fill-rule="evenodd" clip-rule="evenodd" d="M167 189.302V0.847331H202.94C209.366 0.847331 215.078 4.93995 217.144 11.0243L227.992 42.9709C232.814 57.1706 253.187 56.2877 256.763 41.7242L264.202 11.4236C265.848 4.7161 271.862 0 278.769 0H295V161.943L283.522 209.517C281.897 216.253 275.87 220.999 268.941 220.999H222.587C215.85 220.999 209.94 216.508 208.135 210.017L199.265 178.11C195.237 163.621 174.768 163.413 170.446 177.817L167 189.302Z" fill="#B26AE8"/>
<path fill-rule="evenodd" clip-rule="evenodd" d="M39 67.2589V0.253449C41.8648 0.234859 44.7279 0.215639 47.5904 0.196424C59.7817 0.114585 71.9626 0.0328161 84.2208 5.37512e-05C90.648 -0.017124 96.3613 4.07976 98.426 10.1662L111.035 47.3358C115.775 61.3067 135.719 60.761 139.687 46.5518L149.394 11.7982C151.204 5.31597 157.11 0.833114 163.841 0.833114H167V189.288L161.078 209.024C159.174 215.368 153.335 219.713 146.711 219.713H103.773C97.282 219.713 91.5275 215.538 89.5133 209.368L45.8651 75.6551C44.6753 72.0104 42.1806 69.062 39 67.2589Z" fill="#9D4EDD"/>
<path fill-rule="evenodd" clip-rule="evenodd" d="M38.9995 0V67.0054C36.7954 65.7559 34.2619 65.0564 31.6051 65.0564H15.0002C6.71591 65.0564 0.000168533 58.3407 0.000168533 50.0565V0.156527L8.47207e-05 0.156166C-0.000182398 0.155622 0.000214647 0.154987 0.000820721 0.154987C13.1046 0.154982 26.0694 0.0839045 38.9995 0Z" fill="#7B2CBF"/>
</svg>
